Coordinates
version=1
nRows=29
nColumns=30
inDegrees=yes

Units are S.I. units (second, meters, Newtons, ...)
Angles are in degrees.

endheader
time	floatyaw	floatroll	floatpitch	floatx	floaty	floatz	pro_sup_l	deviation_l	flexion_l	cmc_flexion_l	cmc_abduction_l	mp_flexion_l	ip_flexion_l	2mcp_flexion_l	2mcp_abduction_l	2pm_flexion_l	2md_flexion_l	3mcp_flexion_l	3mcp_abduction_l	3pm_flexion_l	3md_flexion_l	4mcp_flexion_l	4mcp_abduction_l	4pm_flexion_l	4md_flexion_l	5mcp_flexion_l	5mcp_abduction_l	5pm_flexion_l	5md_flexion_l
-0.495000	-160.147433	-5.066637	-73.570646	0.079362	-0.181668	-0.016813	100.127717	4.671882	0.067478	13.708891	12.554790	-26.023323	-42.229948	30.250891	7.005630	43.831504	29.864673	24.514653	4.137588	45.676367	29.939466	13.191345	-4.165297	52.843973	36.517665	0.850757	-8.427783	62.474030	43.665019
-0.485000	-160.147433	-5.066637	-73.570646	0.079358	-0.181669	-0.016824	100.126358	4.665183	0.067103	13.704780	12.546813	-26.035561	-42.236664	30.255514	7.001433	43.845963	29.877525	24.502418	4.140195	45.695982	29.951027	13.188032	-4.162510	52.847005	36.508772	0.844677	-8.424904	62.472435	43.656346
-0.475000	-160.147433	-5.066637	-73.570646	0.079351	-0.181670	-0.016832	100.127986	4.662928	0.066710	13.699294	12.544125	-26.047700	-42.236151	30.253022	6.999417	43.872883	29.899281	24.484212	4.143066	45.730449	29.972440	13.177252	-4.158385	52.860802	36.502485	0.838638	-8.427160	62.479134	43.652546
-0.465000	-160.147433	-5.066637	-73.570646	0.079341	-0.181670	-0.016836	100.132694	4.665647	0.067388	13.687335	12.547767	-26.054482	-42.224993	30.245809	6.999660	43.907876	29.925906	24.464754	4.145919	45.770572	29.998069	13.161670	-4.153391	52.880596	36.498609	0.834602	-8.434432	62.491379	43.652854
-0.455000	-160.147433	-5.066637	-73.570646	0.079332	-0.181666	-0.016837	100.140289	4.672478	0.070335	13.666169	12.555479	-26.050477	-42.202674	30.236933	7.001592	43.943271	29.950636	24.448197	4.148543	45.805557	30.020986	13.144736	-4.148112	52.900140	36.496233	0.833376	-8.445928	62.506224	43.656312
-0.445000	-160.147433	-5.066637	-73.570646	0.079325	-0.181657	-0.016836	100.149858	4.680808	0.076399	13.637252	12.562572	-26.033211	-42.172754	30.228815	7.004003	43.971106	29.966598	24.436408	4.150685	45.827231	30.035464	13.129194	-4.143381	52.914609	36.494357	0.833744	-8.459991	62.521286	43.661886
-0.435000	-160.147433	-5.066637	-73.570646	0.079321	-0.181645	-0.016836	100.159637	4.686559	0.085588	13.606149	12.564778	-26.005077	-42.142552	30.222804	7.005396	43.986479	29.969581	24.428646	4.152022	45.832869	30.038818	13.116544	-4.140338	52.922533	36.492496	0.833075	-8.474071	62.534438	43.668152
-0.425000	-160.147433	-5.066637	-73.570646	0.079321	-0.181631	-0.016842	100.167414	4.685416	0.096977	13.580211	12.560781	-25.973040	-42.120891	30.219574	7.004567	43.989314	29.959528	24.422530	4.152304	45.825426	30.031909	13.107151	-4.140200	52.925990	36.490958	0.828763	-8.485107	62.543217	43.673102
-0.415000	-160.147433	-5.066637	-73.570646	0.079322	-0.181619	-0.016855	100.171306	4.674743	0.109168	13.564879	12.552628	-25.946180	-42.114701	30.219903	7.001047	43.983466	29.939987	24.415588	4.151653	45.811111	30.018140	13.100457	-4.143730	52.929213	36.490596	0.819526	-8.490506	62.544964	43.674513
-0.405000	-160.147433	-5.066637	-73.570646	0.079322	-0.181610	-0.016878	100.170684	4.655422	0.121005	13.560385	12.544382	-25.931942	-42.126096	30.225156	6.995128	43.974078	29.916033	24.406559	4.150870	45.795492	30.001322	13.095052	-4.150671	52.936479	36.492224	0.806000	-8.489536	62.537925	43.670807
-0.395000	-160.147433	-5.066637	-73.570646	0.079321	-0.181603	-0.016910	100.167304	4.632683	0.131884	13.560767	12.540642	-25.932615	-42.151426	30.236843	6.987515	43.965293	29.892114	24.395836	4.151586	45.780012	29.983345	13.088835	-4.159542	52.950368	36.496115	0.790610	-8.484473	62.522672	43.662010
-0.385000	-160.147433	-5.066637	-73.570646	0.079319	-0.181595	-0.016950	100.166897	4.615201	0.141301	13.556245	12.545917	-25.943901	-42.182840	30.255018	6.978907	43.959858	29.871099	24.384840	4.156015	45.760679	29.962888	13.079585	-4.168122	52.970990	36.501866	0.776815	-8.480522	62.502790	43.650271
-0.375000	-160.147433	-5.066637	-73.570646	0.079321	-0.181582	-0.016996	100.181283	4.612354	0.148057	13.538368	12.564508	-25.956648	-42.211546	30.276004	6.969778	43.960229	29.854746	24.374371	4.166174	45.729890	29.936179	13.065925	-4.174615	52.996039	36.508518	0.767746	-8.483956	62.484169	43.639564
-0.365000	-160.147433	-5.066637	-73.570646	0.079330	-0.181558	-0.017051	100.230327	4.630341	0.150228	13.505779	12.600065	-25.961016	-42.231167	30.290754	6.960500	43.969132	29.844502	24.362373	4.182714	45.680994	29.899958	13.048220	-4.179041	53.020965	36.514487	0.764506	-8.498931	62.473124	43.634511
-0.355000	-160.147433	-5.066637	-73.570646	0.079348	-0.181517	-0.017126	100.342200	4.668738	0.146886	13.467815	12.654638	-25.950808	-42.239928	30.285581	6.951647	43.987856	29.841259	24.342212	4.203906	45.613446	29.855065	13.028978	-4.184073	53.038816	36.517182	0.764955	-8.524617	62.474096	43.638610
-0.345000	-160.147433	-5.066637	-73.570646	0.079373	-0.181448	-0.017242	100.550284	4.719602	0.141458	13.443658	12.727816	-25.925773	-42.241465	30.245974	6.944100	44.013329	29.844001	24.303146	4.225562	45.535096	29.807975	13.012632	-4.194674	53.039943	36.512568	0.764212	-8.554446	62.487523	43.652272
-0.335000	-160.147433	-5.066637	-73.570646	0.079394	-0.181332	-0.017434	100.886031	4.770921	0.145129	13.456117	12.816731	-25.891225	-42.244470	30.162195	6.938660	44.037803	29.849209	24.234361	4.242248	45.459097	29.768313	13.005096	-4.216322	53.012523	36.495277	0.757443	-8.578337	62.508151	43.671215
-0.325000	-160.147433	-5.066637	-73.570646	0.079393	-0.181136	-0.017750	101.368859	4.814750	0.177618	13.521383	12.917046	-25.855955	-42.261160	30.033876	6.935483	44.054150	29.853014	24.132176	4.249408	45.396651	29.743350	13.013513	-4.252278	52.945355	36.460021	0.743917	-8.587033	62.524891	43.686342
-0.315000	-160.147433	-5.066637	-73.570646	0.079341	-0.180818	-0.018245	101.995858	4.857817	0.262884	13.638824	13.024004	-25.829845	-42.304272	29.871375	6.933980	44.064664	29.855585	24.007465	4.245409	45.350685	29.733274	13.046081	-4.300826	52.833885	36.404661	0.729665	-8.576547	62.524701	43.686626
-0.305000	-160.147433	-5.066637	-73.570646	0.079199	-0.180333	-0.018976	102.734660	4.929853	0.419151	13.786312	13.132503	-25.822055	-42.383015	29.693539	6.933350	44.086661	29.864412	23.888596	4.232494	45.316045	29.731223	13.111348	-4.353753	52.687813	36.333966	0.726270	-8.550386	62.501667	43.665304
-0.295000	-160.147433	-5.066637	-73.570646	0.078915	-0.179639	-0.019986	103.522182	5.083917	0.645496	13.924511	13.236596	-25.839804	-42.499097	29.522792	6.933027	44.149023	29.893149	23.815986	4.216084	45.287192	29.728771	13.216880	-4.397241	52.534857	36.261207	0.745883	-8.517956	62.467232	43.626424
-0.285000	-160.147433	-5.066637	-73.570646	0.078429	-0.178706	-0.021294	104.270974	5.385308	0.910257	14.008701	13.330397	-25.886859	-42.643614	29.378603	6.932229	44.279510	29.955545	23.828246	4.202551	45.267310	29.722904	13.368066	-4.415623	52.413900	36.204320	0.795374	-8.489008	62.452286	43.586223
-0.275000	-160.147433	-5.066637	-73.570646	0.077667	-0.177521	-0.022890	104.883881	5.891349	1.147883	14.002442	13.412251	-25.960684	-42.794734	29.270657	6.928664	44.488149	30.056947	23.945050	4.196309	45.268992	29.718138	13.568039	-4.396972	52.355541	36.176195	0.873155	-8.466358	62.493478	43.565392
-0.265000	-160.147433	-5.066637	-73.570646	0.076546	-0.176067	-0.024748	105.275646	6.630541	1.268699	13.886637	13.491788	-26.048535	-42.916786	29.194528	6.917493	44.754103	30.187116	24.155299	4.197565	45.301588	29.720410	13.818943	-4.338102	52.357279	36.173452	0.970692	-8.441408	62.606306	43.574377
-0.255000	-160.147433	-5.066637	-73.570646	0.074977	-0.174312	-0.026839	105.396472	7.591839	1.179809	13.660393	13.596664	-26.125355	-42.963670	29.133420	6.891879	45.022954	30.317994	24.418282	4.201927	45.352031	29.726325	14.123981	-4.246395	52.367786	36.171095	1.078844	-8.397089	62.759546	43.600190
-0.245000	-160.147433	-5.066637	-73.570646	0.072877	-0.172192	-0.029150	105.249594	8.730588	0.808257	13.334750	13.774398	-26.157428	-42.890459	29.067067	6.845909	45.218458	30.408886	24.679412	4.202253	45.374908	29.716657	14.489036	-4.137411	52.293762	36.128903	1.197679	-8.319262	62.869775	43.604580
-0.235000	-160.147433	-5.066637	-73.570646	0.070183	-0.169612	-0.031687	104.895886	9.989103	0.114703	12.924598	14.086481	-26.113193	-42.673496	28.983580	6.779076	45.267336	30.419010	24.893247	4.191931	45.304877	29.661828	14.921979	-4.029477	52.032767	36.009574	1.346322	-8.211227	62.826318	43.538102
-0.225000	-160.147433	-5.066637	-73.570646	0.066865	-0.166473	-0.034465	104.443571	11.322332	-0.910014	12.445702	14.596615	-25.976922	-42.331473	28.886137	6.699564	45.128863	30.323740	25.040519	4.167949	45.090563	29.539377	15.428200	-3.937890	51.520534	35.801229	1.566765	-8.101309	62.539712	43.365203
-0.215000	-160.147433	-5.066637	-73.570646	0.062931	-0.162709	-0.037490	104.026797	12.716236	-2.263520	11.921213	15.359088	-25.756063	-41.933143	28.787924	6.622769	44.817210	30.128189	25.128016	4.132097	44.733125	29.354377	16.002664	-3.871185	50.770296	35.532203	1.915242	-8.034782	61.990619	43.087528
